<?xml version="1.0" encoding="UTF-8" standalone="no"?>
<!-- Created with Inkscape (http://www.inkscape.org/) -->

<svg
   xmlns:dc="http://purl.org/dc/elements/1.1/"
   xmlns:cc="http://creativecommons.org/ns#"
   xmlns:rdf="http://www.w3.org/1999/02/22-rdf-syntax-ns#"
   xmlns:svg="http://www.w3.org/2000/svg"
   xmlns="http://www.w3.org/2000/svg"
   xmlns:sodipodi="http://sodipodi.sourceforge.net/DTD/sodipodi-0.dtd"
   xmlns:inkscape="http://www.inkscape.org/namespaces/inkscape"
   width="140"
   height="22"
   id="svg2"
   version="1.1"
   inkscape:version="0.48.5 r10040"
   sodipodi:docname="clear-trigger-large.svg"
   inkscape:export-filename="D:\SVN\extjs6-themes\packages\local\codaxy-azzurra-classic\resources\images\form\search-trigger-large.png"
   inkscape:export-xdpi="90"
   inkscape:export-ydpi="90">
  <defs
     id="defs4" />
  <sodipodi:namedview
     id="base"
     pagecolor="#ffffff"
     bordercolor="#666666"
     borderopacity="1.0"
     inkscape:pageopacity="0.0"
     inkscape:pageshadow="2"
     inkscape:zoom="7.5934526"
     inkscape:cx="59.587213"
     inkscape:cy="18.78241"
     inkscape:document-units="px"
     inkscape:current-layer="layer1"
     showgrid="true"
     inkscape:window-width="1920"
     inkscape:window-height="1017"
     inkscape:window-x="-8"
     inkscape:window-y="-8"
     inkscape:window-maximized="1"
     showguides="true"
     inkscape:guide-bbox="true">
    <inkscape:grid
       type="xygrid"
       id="grid2985"
       empspacing="2"
       visible="true"
       enabled="true"
       snapvisiblegridlinesonly="true" />
    <sodipodi:guide
       orientation="1,0"
       position="28,6"
       id="guide2987" />
    <sodipodi:guide
       orientation="1,0"
       position="56,7"
       id="guide2989" />
    <sodipodi:guide
       orientation="1,0"
       position="84,18"
       id="guide2991" />
    <sodipodi:guide
       orientation="1,0"
       position="112,6"
       id="guide2993" />
    <sodipodi:guide
       orientation="0,1"
       position="18.5,11"
       id="guide2988" />
  </sodipodi:namedview>
  <metadata
     id="metadata7">
    <rdf:RDF>
      <cc:Work
         rdf:about="">
        <dc:format>image/svg+xml</dc:format>
        <dc:type
           rdf:resource="http://purl.org/dc/dcmitype/StillImage" />
        <dc:title />
      </cc:Work>
    </rdf:RDF>
  </metadata>
  <g
     inkscape:label="Layer 1"
     inkscape:groupmode="layer"
     id="layer1"
     transform="translate(0,-1030.3622)">
    <path
       sodipodi:type="arc"
       style="fill:#cdcdcd;fill-opacity:1;stroke:none;display:inline"
       id="path3941-2"
       sodipodi:cx="9"
       sodipodi:cy="369"
       sodipodi:rx="5"
       sodipodi:ry="5"
       d="m 14,369 c 0,2.76142 -2.238576,5 -5,5 -2.7614237,0 -5,-2.23858 -5,-5 0,-2.76142 2.2385763,-5 5,-5 2.761424,0 5,2.23858 5,5 z"
       transform="matrix(1.4,0,0,1.4,1.4,524.7622)" />
    <path
       transform="matrix(1.4,0,0,1.4,29.4,524.7622)"
       d="m 14,369 c 0,2.76142 -2.238576,5 -5,5 -2.7614237,0 -5,-2.23858 -5,-5 0,-2.76142 2.2385763,-5 5,-5 2.761424,0 5,2.23858 5,5 z"
       sodipodi:ry="5"
       sodipodi:rx="5"
       sodipodi:cy="369"
       sodipodi:cx="9"
       id="path3819"
       style="fill:#b8b8b8;fill-opacity:1;stroke:none;display:inline"
       sodipodi:type="arc" />
    <path
       sodipodi:type="arc"
       style="fill:#a4a4a4;fill-opacity:1;stroke:none;display:inline"
       id="path3821"
       sodipodi:cx="9"
       sodipodi:cy="369"
       sodipodi:rx="5"
       sodipodi:ry="5"
       d="m 14,369 c 0,2.76142 -2.238576,5 -5,5 -2.7614237,0 -5,-2.23858 -5,-5 0,-2.76142 2.2385763,-5 5,-5 2.761424,0 5,2.23858 5,5 z"
       transform="matrix(1.4,0,0,1.4,57.4,524.7622)" />
    <path
       transform="matrix(1.4,0,0,1.4,85.4,524.7622)"
       d="m 14,369 c 0,2.76142 -2.238576,5 -5,5 -2.7614237,0 -5,-2.23858 -5,-5 0,-2.76142 2.2385763,-5 5,-5 2.761424,0 5,2.23858 5,5 z"
       sodipodi:ry="5"
       sodipodi:rx="5"
       sodipodi:cy="369"
       sodipodi:cx="9"
       id="path3823"
       style="fill:#cdcdcd;fill-opacity:1;stroke:none;display:inline"
       sodipodi:type="arc" />
    <path
       sodipodi:type="arc"
       style="fill:#b8b8b8;fill-opacity:1;stroke:none;display:inline"
       id="path3825"
       sodipodi:cx="9"
       sodipodi:cy="369"
       sodipodi:rx="5"
       sodipodi:ry="5"
       d="m 14,369 c 0,2.76142 -2.238576,5 -5,5 -2.7614237,0 -5,-2.23858 -5,-5 0,-2.76142 2.2385763,-5 5,-5 2.761424,0 5,2.23858 5,5 z"
       transform="matrix(1.4,0,0,1.4,113.4,524.7622)" />
    <g
       transform="translate(41,-1)"
       id="g3831"
       style="stroke:#ffffff;stroke-opacity:1">
      <path
         sodipodi:nodetypes="cc"
         inkscape:connector-curvature="0"
         id="path3827"
         d="m -30.5,1038.8622 7,7"
         style="fill:none;stroke:#ffffff;stroke-width:1px;stroke-linecap:butt;stroke-linejoin:miter;stroke-opacity:1" />
      <path
         sodipodi:nodetypes="cc"
         inkscape:connector-curvature="0"
         id="path3829"
         d="m -23.5,1038.8622 -7,7"
         style="fill:none;stroke:#ffffff;stroke-width:1px;stroke-linecap:butt;stroke-linejoin:miter;stroke-opacity:1" />
    </g>
    <g
       style="stroke:#ffffff;stroke-opacity:1"
       id="g3835"
       transform="translate(69,-1)">
      <path
         style="fill:none;stroke:#ffffff;stroke-width:1px;stroke-linecap:butt;stroke-linejoin:miter;stroke-opacity:1"
         d="m -30.5,1038.8622 7,7"
         id="path3837"
         inkscape:connector-curvature="0"
         sodipodi:nodetypes="cc" />
      <path
         style="fill:none;stroke:#ffffff;stroke-width:1px;stroke-linecap:butt;stroke-linejoin:miter;stroke-opacity:1"
         d="m -23.5,1038.8622 -7,7"
         id="path3839"
         inkscape:connector-curvature="0"
         sodipodi:nodetypes="cc" />
    </g>
    <g
       transform="translate(97,-1)"
       id="g3841"
       style="stroke:#ffffff;stroke-opacity:1">
      <path
         sodipodi:nodetypes="cc"
         inkscape:connector-curvature="0"
         id="path3843"
         d="m -30.5,1038.8622 7,7"
         style="fill:none;stroke:#ffffff;stroke-width:1px;stroke-linecap:butt;stroke-linejoin:miter;stroke-opacity:1" />
      <path
         sodipodi:nodetypes="cc"
         inkscape:connector-curvature="0"
         id="path3845"
         d="m -23.5,1038.8622 -7,7"
         style="fill:none;stroke:#ffffff;stroke-width:1px;stroke-linecap:butt;stroke-linejoin:miter;stroke-opacity:1" />
    </g>
    <g
       style="stroke:#ffffff;stroke-opacity:1"
       id="g3847"
       transform="translate(125,-1)">
      <path
         style="fill:none;stroke:#ffffff;stroke-width:1px;stroke-linecap:butt;stroke-linejoin:miter;stroke-opacity:1"
         d="m -30.5,1038.8622 7,7"
         id="path3849"
         inkscape:connector-curvature="0"
         sodipodi:nodetypes="cc" />
      <path
         style="fill:none;stroke:#ffffff;stroke-width:1px;stroke-linecap:butt;stroke-linejoin:miter;stroke-opacity:1"
         d="m -23.5,1038.8622 -7,7"
         id="path3851"
         inkscape:connector-curvature="0"
         sodipodi:nodetypes="cc" />
    </g>
    <g
       transform="translate(153,-1)"
       id="g3853"
       style="stroke:#ffffff;stroke-opacity:1">
      <path
         sodipodi:nodetypes="cc"
         inkscape:connector-curvature="0"
         id="path3855"
         d="m -30.5,1038.8622 7,7"
         style="fill:none;stroke:#ffffff;stroke-width:1px;stroke-linecap:butt;stroke-linejoin:miter;stroke-opacity:1" />
      <path
         sodipodi:nodetypes="cc"
         inkscape:connector-curvature="0"
         id="path3857"
         d="m -23.5,1038.8622 -7,7"
         style="fill:none;stroke:#ffffff;stroke-width:1px;stroke-linecap:butt;stroke-linejoin:miter;stroke-opacity:1" />
    </g>
  </g>
</svg>
