<svg xmlns="http://www.w3.org/2000/svg" xmlns:xlink="http://www.w3.org/1999/xlink" width="832" height="32" data-version="6.3"><defs>
            
        <symbol id="alert-icon" style="">
            <g transform="matrix(1 0 0 1 -32.8404 -27.126)" id="Warning" class="">
                <path transform="matrix(1 0 0 1 -9.35572e-7 -0.0000011231)" stroke-width="0.5416609725716167" stroke-miterlimit="3" stroke="none" fill="rgb(248,189,2)" d="M 50.65829849243164 33.92964172363281 C 49.6540641784668 32.25157928466797 48.01228713989258 32.25212097167969 47.010215759277344 33.93018341064453 L 37.09077835083008 50.52938461303711 C 36.088165283203125 52.20745086669922 36.86707305908203 53.580562591552734 38.82246780395508 53.580562591552734 L 58.86013412475586 53.580562591552734 C 60.81444549560547 53.58001708984375 61.59280776977539 52.20745086669922 60.589111328125 50.52992630004883 L 50.65829849243164 33.92964172363281 Z M 48.84103012084961 38.67351150512695 C 49.42764663696289 38.67351150512695 49.907554626464844 39.15288162231445 49.907554626464844 39.74004364013672 L 49.907554626464844 44.71898651123047 C 49.907554626464844 45.30669021606445 49.42764663696289 45.7855224609375 48.84103012084961 45.7855224609375 C 48.254947662353516 45.7855224609375 47.774497985839844 45.30669021606445 47.774497985839844 44.71898651123047 L 47.774497985839844 39.74004364013672 C 47.774497985839844 39.15288162231445 48.254947662353516 38.67351150512695 48.84103012084961 38.67351150512695 Z M 47.419166564941406 48.93256759643555 C 47.419166564941406 48.1466178894043 48.0561637878418 47.51124954223633 48.84103012084961 47.51124954223633 C 49.62643814086914 47.51124954223633 50.26288986206055 48.1466178894043 50.26288986206055 48.93256759643555 C 50.26288986206055 49.71743392944336 49.62643814086914 50.354427337646484 48.84103012084961 50.354427337646484 C 48.0561637878418 50.354427337646484 47.419166564941406 49.71689224243164 47.419166564941406 48.93256759643555 Z " fill-opacity="1" class="" stroke-linecap="butt" stroke-linejoin="miter"/>
            </g>
        </symbol><symbol id="message-icon" style="" class="" viewBox="1.0658141036401503e-14 -4.294232525126063e-8 31.99951171875 32" width="31.99951171875" height="32"><g transform="matrix(1 0 0 1 -165.853 -59.2206)" id="Conversation">
                <path transform="matrix(1 0 0 1 -0.00000259533 -0.00000260331)" stroke-width="0.5509487335209429" stroke-miterlimit="3" stroke="none" fill="#059CF1" d="M 174.23974609375 66.10999298095703 C 171.62274169921875 66.10999298095703 169.481201171875 68.26860809326172 169.481201171875 70.90655517578125 L 169.481201171875 77.6220703125 C 169.481201171875 80.25946044921875 171.62274169921875 82.41917419433594 174.23974609375 82.41917419433594 L 183.0846710205078 82.41917419433594 L 188.36276245117188 86.7826919555664 C 188.9687957763672 87.28404998779297 189.46575927734375 87.04769897460938 189.46575927734375 86.25653839111328 L 189.46575927734375 82.41917419433594 C 192.08387756347656 82.41917419433594 194.22430419921875 80.25946044921875 194.22430419921875 77.6220703125 L 194.22430419921875 70.90655517578125 C 194.22373962402344 68.26860809326172 192.08387756347656 66.10999298095703 189.46575927734375 66.10999298095703 L 174.23974609375 66.10999298095703 Z M 176.60882568359375 77.67991638183594 C 176.0005645751953 77.67991638183594 175.5069122314453 77.1862564086914 175.5069122314453 76.57801055908203 C 175.5069122314453 75.96977233886719 176.0005645751953 75.47611236572266 176.60882568359375 75.47611236572266 L 187.67295837402344 75.47611236572266 C 188.28121948242188 75.47611236572266 188.77487182617188 75.96977233886719 188.77487182617188 76.57801055908203 C 188.77487182617188 77.1862564086914 188.28067016601562 77.67991638183594 187.67295837402344 77.67991638183594 L 176.60882568359375 77.67991638183594 Z M 176.60882568359375 73.82327270507812 C 176.0005645751953 73.82327270507812 175.5069122314453 73.32962036132812 175.5069122314453 72.72137451171875 C 175.5069122314453 72.11312866210938 176.0005645751953 71.61947631835938 176.60882568359375 71.61947631835938 L 187.67295837402344 71.61947631835938 C 188.28121948242188 71.61947631835938 188.77487182617188 72.11312866210938 188.77487182617188 72.72137451171875 C 188.77487182617188 73.32962036132812 188.28067016601562 73.82327270507812 187.67295837402344 73.82327270507812 L 176.60882568359375 73.82327270507812 Z " class="" stroke-linecap="butt" stroke-linejoin="miter"/>
            </g></symbol><symbol id="stop-icon" style="" class="" viewBox="-1.7763568394002505e-15 0 31.999135971069336 31.99939727783203" width="31.999135971069336" height="31.99939727783203"><g transform="matrix(1 0 0 1 4.36349 4.36301)">
                <path transform="matrix(1 0 0 1 -812.071 -265.697)" stroke-width="1.1336776345668298" stroke-miterlimit="3" stroke="none" fill="#FF0000" d="M 812.0701293945312 277.3336486816406 C 812.0701293945312 283.7604064941406 817.2813110351562 288.9706115722656 823.70703125 288.9706115722656 C 830.1337890625 288.9706115722656 835.343994140625 283.7604064941406 835.343994140625 277.3336486816406 C 835.343994140625 270.9068908691406 830.1337890625 265.6967468261719 823.70703125 265.6967468261719 C 817.2813110351562 265.6967468261719 812.0701293945312 270.9068908691406 812.0701293945312 277.3336486816406 Z M 815.949462890625 279.66107177734375 L 815.949462890625 275.00628662109375 L 831.4656982421875 275.00628662109375 L 831.4656982421875 279.66107177734375 L 815.949462890625 279.66107177734375 Z " class="" stroke-linecap="butt" stroke-linejoin="miter"/>
                <path transform="matrix(1 0 0 1 3.87933 9.30957)" stroke-width="1.1336776345668298" stroke-miterlimit="3" stroke="none" fill="#FFFFFF" d="M 6.908913974257302e-8 -2.7855639928020537e-7 L 15.516271591186523 -2.7855639928020537e-7 L 15.516271591186523 4.654775619506836 L 6.908913974257302e-8 4.654775619506836 L 6.908913974257302e-8 -2.7855639928020537e-7 Z " class="" stroke-linecap="butt" stroke-linejoin="miter"/>
            </g></symbol></defs><svg xmlns="http://www.w3.org/2000/svg" xmlns:xlink="http://www.w3.org/1999/xlink" data-custom-element="Page_cmp" class="page showed" x="0px" y="0" width="832" height="32" data-width="832" data-height="32" id="" viewBox="0 0 832 32">
        
        
        
        <g class="content">
            <g class="background-layers">
                
            </g>
            <g class="layers">
                
            <g transform="matrix(1,0,0,1,0,0)" data-name="Layer 1" data-color="#ff7f00" class="layer"/><g transform="matrix(1,0,0,1,0,0)" data-name="workspace" data-color="#fb0094" class="layer"/><g transform="matrix(1,0,0,1,0,0)" data-name="Layer 01" data-color="#fb0094" class="layer" active="">
                    <use href="#alert-icon" transform="matrix(1 0 0 1 0.0000334052 0.0000477818)" class=""/>
                    <use href="#message-icon" transform="matrix(1 0 0 1 32.0002 0.288349)" class=""/>
                    <use href="#stop-icon" transform="matrix(1 0 0 1 64.0004 0.000304244)" class=""/>
                </g></g>
            <g class="foreground-layers">
                <g class="layer guides" visibility="visible" locked=""/>
            </g>
        </g>
    <jvs:data xmlns="http://www.w3.org/1999/xhtml" xmlns:jvs="http://www.janvas.com/jvs"><jvs:data id="page-preferences">{"snapDistance":10,"snapAngle":45,"fixedDecimals":2,"gridStep":10,"moveStep":1,"rotationStep":90,"snapToGrid":true,"snapToBBoxProjections":false,"snapToPageBBox":true,"snapToPoints":true,"snapToSegments":true,"snapToGuides":true,"snapToSmartGuides":true,"snapToSmartPoints":true,"snapToLockedElements":true,"pageMargin":0,"elementsMargin":0,"gridVisibilityState":true,"pageOriginVisibilityState":true,"guideVisibilityState":true,"guideLockState":true,"scaleText":true,"scaleStrokeAndEffects":true,"drawingScale":1,"unitKey":"PIXEL","unitValue":1,"origin":{"x":0,"y":0},"selectGroupChildren":false,"pageOriginVisibility":false}</jvs:data></jvs:data></svg></svg>